<svg version="1.0" xmlns="http://www.w3.org/2000/svg"
 width="200.000000pt" height="100.000000pt" viewBox="0 0 250.000000 160.000000"
 preserveAspectRatio="xMidYMid meet" stroke="blue">
<g transform="translate(0.000000,172.000000) scale(0.100000,-0.100000)"
fill="#0FE05E">
<path d="M1964 1472 c3 -5 -58 -71 -135 -148 -76 -76 -139 -134 -139 -129 0 5
60 69 132 142 73 73 126 133 117 133 -32 0 -138 -62 -173 -100 -45 -50 -77
-113 -79 -156 -1 -19 -5 -34 -9 -34 -4 0 -7 -40 -7 -90 0 -49 3 -90 7 -90 3 0
37 30 74 67 38 37 68 63 68 57 0 -6 -31 -41 -70 -78 -38 -37 -70 -73 -70 -79
0 -6 32 20 70 58 39 38 70 65 70 59 0 -5 -29 -39 -65 -74 -36 -35 -65 -69 -65
-74 0 -6 29 19 65 54 36 35 65 60 65 54 0 -5 -27 -36 -60 -69 -33 -32 -57 -61
-54 -64 2 -3 31 22 64 54 33 33 60 55 60 49 0 -6 -27 -37 -60 -68 l-60 -58 19
-27 c34 -47 120 -122 164 -141 100 -44 246 -48 367 -11 78 24 81 33 78 229
l-3 162 -30 25 c-16 13 -35 24 -40 25 -6 0 -35 -25 -65 -55 -30 -30 -59 -55
-64 -55 -6 0 14 25 44 55 30 30 50 55 44 55 -5 0 -34 -25 -64 -55 -30 -30 -59
-55 -64 -55 -6 0 14 25 44 55 30 30 50 55 44 55 -5 0 -34 -25 -64 -55 -30 -30
-59 -55 -64 -55 -6 0 14 25 44 55 30 30 50 55 44 55 -5 0 -34 -25 -64 -55 -30
-30 -59 -55 -64 -55 -6 0 14 25 44 56 66 68 53 68 -20 1 l-51 -49 23 -23 c19
-19 36 -24 86 -26 l63 -3 64 64 c36 36 65 60 65 54 0 -5 -31 -41 -70 -79 -38
-38 -70 -74 -70 -79 0 -6 34 23 75 64 41 41 75 70 75 64 0 -5 -34 -43 -75 -84
-41 -41 -75 -79 -75 -84 0 -6 34 23 76 64 102 100 91 75 -16 -36 l-85 -88 -61
-4 c-86 -6 -145 21 -175 80 -33 62 -34 204 -2 265 50 92 120 128 235 121 51
-3 90 -13 129 -31 31 -15 61 -27 67 -27 15 0 26 63 17 97 -3 15 -21 40 -38 55
l-31 28 -46 -45 c-25 -25 -50 -45 -55 -45 -5 0 12 22 39 49 l48 49 -37 12 -37
12 -57 -56 c-31 -31 -61 -56 -66 -56 -5 0 17 27 50 60 l59 60 -30 0 c-23 0
-42 -13 -84 -56 -30 -30 -68 -65 -85 -76 -16 -12 4 13 45 55 41 43 70 77 65
77 -6 0 -95 -85 -200 -190 -104 -104 -191 -187 -194 -184 -3 2 78 88 179 189
l185 185 -43 0 c-24 0 -41 -4 -38 -8z"/>
<path d="M209 1453 c-11 -15 -11 -16 1 -5 29 25 33 11 5 -18 -16 -16 -26 -32
-24 -35 3 -2 21 11 39 30 19 19 38 35 44 35 6 0 -12 -22 -39 -50 -27 -27 -47
-52 -44 -55 3 -2 30 20 59 50 30 30 59 55 64 55 6 0 -21 -31 -59 -70 -38 -38
-67 -72 -64 -74 3 -3 38 28 79 69 41 41 79 75 85 75 5 0 -31 -40 -80 -90 -49
-49 -87 -92 -84 -94 3 -3 47 37 99 89 52 52 99 95 105 95 5 0 -40 -49 -100
-110 -60 -60 -107 -112 -104 -114 3 -3 56 46 119 109 63 63 119 115 125 115 5
0 -48 -57 -118 -128 -70 -70 -127 -132 -127 -137 0 -5 36 26 80 70 44 44 80
75 80 70 0 -6 -36 -46 -80 -90 -44 -44 -80 -84 -80 -90 0 -5 36 26 80 70 44
44 80 75 80 70 0 -6 -36 -46 -80 -90 -44 -44 -80 -84 -80 -90 0 -5 36 26 80
70 44 44 80 75 80 70 0 -6 -36 -46 -80 -90 -44 -44 -80 -84 -80 -90 0 -5 36
26 80 70 44 44 80 75 80 70 0 -6 -36 -46 -80 -90 -44 -44 -80 -84 -80 -90 0
-5 36 26 80 70 44 44 80 75 80 70 0 -6 -36 -46 -80 -90 -44 -44 -80 -84 -80
-90 0 -5 36 26 80 70 44 43 82 77 84 74 3 -3 -33 -43 -79 -89 -47 -47 -85 -89
-85 -95 0 -5 45 35 100 90 54 54 102 97 104 94 3 -3 -42 -52 -99 -109 -58 -58
-105 -109 -105 -115 0 -5 54 44 120 110 65 65 122 117 124 114 3 -3 -51 -61
-119 -129 -69 -69 -125 -129 -125 -135 0 -5 36 26 80 70 44 44 80 75 80 70 0
-6 -36 -46 -80 -90 -44 -44 -80 -84 -80 -90 0 -5 36 26 80 70 44 44 80 75 80
70 0 -6 -36 -46 -80 -90 -44 -44 -80 -84 -80 -90 0 -5 36 26 80 70 44 44 80
75 80 70 0 -6 -36 -46 -80 -90 -44 -43 -77 -81 -74 -84 2 -3 38 28 79 69 41
41 75 70 75 64 0 -6 -34 -43 -74 -83 l-75 -72 22 -22 c18 -18 33 -22 85 -22
45 0 65 4 72 15 5 8 10 74 10 147 l0 132 118 3 117 3 3 53 c3 44 -1 57 -20 77
-21 23 -30 25 -120 25 l-98 0 0 80 0 80 118 0 c78 0 122 4 130 12 13 13 16 75
6 102 -3 9 -12 16 -19 16 -7 0 -15 7 -19 15 -4 13 -36 15 -194 15 -169 0 -191
-2 -203 -17z"/>
<path d="M753 1458 c-6 -7 -13 -22 -17 -33 -6 -16 -1 -14 23 9 17 16 33 27 36
25 2 -3 -11 -21 -30 -39 -19 -19 -35 -38 -35 -44 0 -6 22 12 50 39 27 27 52
47 55 44 2 -3 -20 -30 -50 -59 -30 -30 -55 -59 -55 -64 0 -6 31 21 70 59 38
38 72 67 74 64 3 -3 -28 -38 -69 -79 -41 -41 -75 -79 -75 -85 0 -5 40 31 90
80 49 49 92 87 94 84 3 -3 -37 -47 -89 -99 -52 -52 -95 -99 -95 -105 0 -5 49
40 110 100 60 60 112 107 114 104 3 -3 -46 -56 -109 -119 -63 -63 -115 -119
-115 -125 0 -5 57 48 128 118 70 70 131 127 136 127 5 0 -51 -61 -125 -135
-74 -74 -136 -141 -138 -147 -2 -7 31 21 73 62 42 41 76 70 76 64 0 -5 -34
-43 -75 -84 -41 -41 -75 -79 -75 -84 0 -6 34 23 75 64 41 41 75 70 75 64 0 -5
-34 -43 -75 -84 -41 -41 -75 -79 -75 -84 0 -6 34 23 75 64 41 41 75 70 75 64
0 -5 -34 -43 -75 -84 -41 -41 -75 -79 -75 -84 0 -6 34 23 75 64 41 41 75 70
75 64 0 -5 -34 -43 -75 -84 -41 -41 -75 -79 -75 -84 0 -6 34 23 75 64 41 41
75 70 75 64 0 -5 -34 -43 -75 -84 -41 -41 -75 -79 -75 -85 0 -5 40 31 90 80
49 49 92 87 94 84 3 -3 -37 -47 -89 -99 -52 -52 -95 -99 -95 -105 0 -5 49 40
110 100 60 60 112 107 114 104 3 -3 -46 -56 -109 -119 -63 -63 -115 -119 -115
-125 0 -5 57 48 128 118 70 70 131 127 136 127 5 0 -51 -61 -125 -135 -74 -74
-136 -141 -138 -147 -2 -7 31 21 73 62 42 41 76 70 76 64 0 -5 -34 -43 -75
-84 -41 -41 -75 -79 -75 -84 0 -6 34 23 75 64 41 41 75 70 75 64 0 -5 -34 -43
-75 -84 -41 -41 -75 -79 -75 -84 0 -6 34 23 75 64 41 41 75 70 75 64 0 -5 -31
-41 -70 -79 -38 -38 -70 -73 -70 -77 0 -5 10 -18 21 -29 23 -23 90 -36 133
-25 l25 6 3 148 3 147 38 -1 c46 -2 70 -22 92 -80 l17 -46 59 58 c33 32 59 54
59 48 0 -5 -25 -34 -55 -64 -60 -59 -59 -58 -45 -80 8 -12 19 -5 64 39 31 30
58 52 61 50 3 -3 -22 -31 -55 -63 -56 -54 -59 -58 -47 -84 6 -15 25 -39 41
-54 24 -23 39 -28 82 -28 65 0 84 7 84 31 0 32 -90 235 -121 272 l-29 35 -55
-56 c-30 -32 -55 -52 -55 -47 0 11 92 104 154 157 21 18 45 47 52 65 18 42 18
134 0 176 -18 43 -94 111 -140 127 l-38 12 -52 -51 c-28 -28 -56 -51 -61 -51
-5 0 15 25 45 55 l54 55 -156 0 c-113 0 -158 -3 -165 -12z m399 -131 c-34 -34
-62 -70 -62 -79 0 -58 -51 -98 -125 -98 l-46 0 3 83 3 82 68 0 c53 0 71 -4 81
-17 11 -15 18 -12 66 37 30 30 59 55 64 55 6 0 -18 -28 -52 -63z"/>
<path d="M1467 1362 c-42 -42 -77 -82 -77 -87 0 -5 36 26 80 70 44 44 80 75
80 70 0 -6 -36 -46 -80 -90 -44 -44 -80 -84 -80 -90 0 -5 36 26 80 70 44 44
80 75 80 70 0 -6 -36 -46 -80 -90 -44 -44 -80 -84 -80 -90 0 -5 36 26 80 70
44 44 80 75 80 70 0 -6 -36 -46 -80 -90 -44 -44 -80 -84 -80 -90 0 -5 36 26
80 70 44 44 80 75 80 70 0 -6 -36 -46 -80 -90 -44 -44 -80 -84 -80 -90 0 -5
36 26 80 70 44 44 80 75 80 70 0 -6 -36 -46 -80 -90 -44 -44 -80 -84 -80 -90
0 -5 36 26 80 70 44 44 80 75 80 70 0 -6 -36 -46 -80 -90 -44 -44 -80 -84 -80
-90 0 -5 36 26 80 70 44 44 80 75 80 70 0 -6 -36 -46 -80 -90 -44 -44 -80 -84
-80 -90 0 -5 36 26 80 70 44 44 80 75 80 70 0 -6 -36 -46 -80 -90 -44 -44 -80
-84 -80 -90 0 -5 36 26 80 70 44 44 80 75 80 70 0 -6 -36 -46 -80 -90 -44 -44
-80 -84 -80 -90 0 -5 36 26 80 70 44 44 80 75 80 70 0 -6 -36 -46 -80 -90 -44
-44 -80 -84 -80 -90 0 -5 36 26 80 70 44 44 80 75 80 70 0 -6 -36 -46 -80 -90
-44 -44 -80 -84 -80 -90 0 -5 36 26 80 70 44 44 80 75 80 70 0 -6 -36 -46 -80
-90 -44 -44 -80 -84 -80 -90 0 -5 36 26 80 70 44 44 80 75 80 70 0 -6 -36 -46
-80 -90 -44 -44 -80 -84 -80 -90 0 -5 36 26 80 70 44 44 80 75 80 70 0 -6 -33
-44 -74 -84 l-74 -73 21 -21 c15 -15 37 -22 77 -25 95 -7 90 -26 90 377 0 348
-2 371 -35 371 -6 0 -45 -35 -88 -78z"/>
<path d="M1563 593 c-10 -3 -13 -53 -13 -200 0 -218 1 -222 68 -223 l32 0 0
199 c0 195 -1 200 -22 215 -23 16 -42 19 -65 9z"/>
<path d="M546 551 c-10 -11 -15 -25 -11 -30 3 -6 2 -11 -4 -11 -9 0 -46 -92
-46 -115 0 -5 -3 -12 -6 -15 -4 -3 -9 -15 -13 -27 -5 -16 8 -7 44 30 28 28 47
43 42 32 -6 -11 -29 -38 -51 -59 l-40 -39 -12 29 c-6 16 -22 61 -36 99 -14 39
-35 80 -46 93 l-21 22 -58 -57 c-32 -32 -58 -62 -58 -67 0 -6 16 5 35 24 19
19 35 29 35 24 0 -6 -16 -25 -35 -44 -19 -19 -35 -38 -35 -44 0 -5 16 5 35 24
19 19 35 29 35 24 0 -6 -16 -25 -35 -44 -19 -19 -35 -38 -35 -44 0 -5 16 5 35
24 19 19 35 29 35 24 0 -6 -16 -25 -35 -44 -19 -19 -35 -38 -35 -44 0 -5 16 5
35 24 19 19 35 29 35 24 0 -6 -16 -25 -35 -44 -19 -19 -35 -38 -35 -44 0 -5
16 5 35 24 19 19 35 29 35 24 0 -6 -16 -25 -35 -44 -19 -19 -35 -38 -35 -44 0
-5 16 5 35 24 47 45 45 26 -2 -22 -20 -21 -34 -40 -31 -44 4 -3 20 9 37 28 17
18 31 28 31 22 0 -6 -11 -21 -25 -34 -34 -32 -31 -42 13 -38 l37 3 5 117 c5
106 7 119 29 142 14 14 27 24 29 21 3 -3 -7 -18 -22 -34 l-28 -29 27 -82 27
-82 74 73 c95 94 97 80 2 -17 -70 -73 -71 -74 -53 -94 14 -15 29 -20 54 -18
36 3 36 4 69 93 51 141 51 140 51 32 1 -112 9 -127 65 -127 l36 0 0 178 c0
174 -1 179 -23 200 -31 29 -97 30 -121 3z"/>
<path d="M793 466 c-40 -18 -73 -70 -73 -116 l0 -34 46 44 c26 25 42 35 36 24
-6 -12 -28 -36 -48 -53 -30 -27 -35 -36 -29 -59 9 -37 61 -89 103 -103 109
-36 203 47 189 168 -12 106 -128 172 -224 129z"/>
<path d="M1170 469 c0 -7 -3 -9 -7 -6 -3 4 -13 1 -21 -6 -12 -9 -16 -9 -19 1
-6 17 -23 15 -46 -5 -19 -17 -20 -17 -14 0 4 11 3 16 -3 12 -6 -4 -10 -62 -10
-137 0 -146 5 -157 68 -158 l32 0 0 83 c0 96 14 127 60 127 39 0 49 33 23 69
-21 27 -63 41 -63 20z"/>
<path d="M1330 471 c0 -7 -5 -9 -10 -6 -16 10 -60 -23 -60 -44 0 -28 35 -55
57 -43 10 6 34 12 53 14 26 2 35 -1 38 -14 3 -15 -4 -18 -37 -18 -23 0 -41 -4
-41 -10 0 -5 -6 -7 -13 -4 -7 2 -25 -4 -39 -16 -20 -15 -26 -29 -26 -57 0 -54
6 -58 39 -27 36 35 39 20 3 -17 l-26 -27 27 -18 c17 -11 44 -18 69 -17 23 1
65 2 94 2 l52 1 0 107 c0 117 -8 144 -52 176 -31 23 -128 36 -128 18z"/>
<path d="M1753 466 c-53 -24 -75 -69 -71 -146 4 -77 24 -110 84 -140 94 -47
228 2 165 61 -17 16 -27 18 -61 10 -22 -5 -40 -7 -40 -4 0 2 -12 -10 -26 -27
-15 -17 -29 -28 -32 -25 -3 3 5 16 17 29 19 20 20 24 7 29 -9 4 -16 13 -16 21
0 12 18 16 88 18 l87 3 -3 50 c-2 43 -8 55 -41 89 -45 44 -104 56 -158 32z"/>
<path d="M2055 470 c-4 -6 -11 -7 -17 -4 -6 4 -8 3 -5 -3 4 -6 -5 -21 -18 -33
-29 -27 -34 -17 -7 14 17 21 17 21 -5 2 -48 -40 -20 -117 58 -156 43 -22 49
-36 20 -45 -10 -3 -26 -14 -36 -25 -10 -11 -23 -20 -28 -20 -6 0 -2 9 8 20 10
11 15 23 12 26 -4 4 -15 -4 -26 -17 -11 -13 -20 -19 -21 -12 0 6 5 15 10 18
14 9 12 25 -3 25 -20 0 -18 -45 3 -68 41 -43 151 -37 185 11 28 40 19 81 -25
121 -22 20 -44 36 -48 36 -5 0 -19 -11 -32 -25 -28 -30 -42 -24 -14 6 10 11
19 28 19 37 0 17 25 20 80 10 31 -5 31 33 0 62 l-25 23 -23 -21 c-32 -30 -46
-28 -17 3 l23 25 -31 0 c-17 0 -34 -5 -37 -10z"/>
</g>
</svg>
